<svg width="24" height="25" viewBox="0 0 24 25" fill="none" xmlns="http://www.w3.org/2000/svg">
<path d="M21.0999 9.37518L12.6999 17.8002C12.5999 17.9002 12.4916 17.9712 12.3749 18.0132C12.2582 18.0552 12.1332 18.0758 11.9999 18.0752C11.8666 18.0752 11.7416 18.0545 11.6249 18.0132C11.5082 17.9718 11.3999 17.9008 11.2999 17.8002L2.8749 9.37518C2.64157 9.14185 2.5249 8.85018 2.5249 8.50018C2.5249 8.15018 2.6499 7.85018 2.8999 7.60018C3.1499 7.35018 3.44157 7.22518 3.7749 7.22518C4.10824 7.22518 4.3999 7.35018 4.6499 7.60018L11.9999 14.9502L19.3499 7.60018C19.5832 7.36685 19.8709 7.25018 20.2129 7.25018C20.5549 7.25018 20.8506 7.37518 21.0999 7.62518C21.3499 7.87518 21.4749 8.16685 21.4749 8.50018C21.4749 8.83351 21.3499 9.12518 21.0999 9.37518Z" fill="#686868"/>
</svg>
