<svg width="60" height="60" viewBox="0 0 60 60" fill="none" xmlns="http://www.w3.org/2000/svg">
<mask id="mask0_155_1397" style="mask-type:luminance" maskUnits="userSpaceOnUse" x="0" y="0" width="60" height="60">
<path d="M59 59V1H1V59H59Z" fill="white" stroke="white" stroke-width="2"/>
</mask>
<g mask="url(#mask0_155_1397)">
<path d="M21.3828 8.20313C21.3828 8.10853 21.3055 8.03125 21.2109 8.03125C21.1163 8.03125 21.0391 8.10853 21.0391 8.20313C21.0391 8.29772 21.1163 8.375 21.2109 8.375C21.3055 8.375 21.3828 8.29772 21.3828 8.20313Z" fill="#0B09C3" stroke="#0B09C3" stroke-width="2"/>
<path d="M35.2734 21.2109C37.9453 21.2109 38.7891 24.2578 38.7891 24.2578C38.7891 24.2578 39.6328 21.2109 42.3047 21.2109C44.3859 21.2109 45.8203 22.9582 45.8203 25.0277C45.8203 26.693 44.8512 28.0313 43.2188 29.5723C42.0457 30.6773 40.5316 31.8879 38.7891 33.3984C34.6195 29.7844 31.7578 27.8895 31.7578 25.0277C31.7578 22.9582 33.1922 21.2109 35.2734 21.2109Z" stroke="#0B09C3" stroke-width="2" stroke-miterlimit="10" stroke-linecap="round" stroke-linejoin="round"/>
<path d="M17.6953 51.7969H24.7266" stroke="#0B09C3" stroke-width="2" stroke-miterlimit="10" stroke-linecap="round" stroke-linejoin="round"/>
<path d="M35.2734 40.0898C36.3949 40.3863 37.5727 40.5469 38.7891 40.5469C46.5562 40.5469 52.8516 34.2504 52.8516 26.4844C52.8516 18.7172 46.5562 12.4219 38.7891 12.4219C37.575 12.4219 36.3973 12.5754 35.2734 12.865C29.209 14.4258 24.7266 19.9313 24.7266 26.4844C24.7266 29.2419 25.5492 31.7941 26.9203 33.9645L24.7266 40.5469L31.309 38.3532C32.5219 39.1196 33.8531 39.7137 35.2734 40.0898Z" stroke="#0B09C3" stroke-width="2" stroke-miterlimit="10" stroke-linecap="round" stroke-linejoin="round"/>
<path d="M21.2109 59C21.3058 59 21.3828 58.9229 21.3828 58.8281C21.3828 58.7333 21.3058 58.6563 21.2109 58.6563C21.1161 58.6563 21.0391 58.7333 21.0391 58.8281C21.0391 58.9229 21.1161 59 21.2109 59Z" fill="#0B09C3" stroke="#0B09C3" stroke-width="2"/>
<path d="M35.2734 40.0898V55.3125C35.2734 57.2544 33.6996 58.8281 31.7578 58.8281H26.4844" stroke="#0B09C3" stroke-width="2" stroke-miterlimit="10" stroke-linecap="round" stroke-linejoin="round"/>
<path d="M15.9375 58.8281H10.6641C8.72227 58.8281 7.14844 57.2543 7.14844 55.3125V4.6875C7.14844 2.7457 8.72227 1.17188 10.6641 1.17188H31.7578C33.6996 1.17188 35.2734 2.7457 35.2734 4.6875V12.8648" stroke="#0B09C3" stroke-width="2" stroke-miterlimit="10" stroke-linecap="round" stroke-linejoin="round"/>
</g>
</svg>
