<svg width="13" height="13" viewBox="0 0 13 13" fill="none" xmlns="http://www.w3.org/2000/svg">
<path d="M5.65284 0.959114C5.81615 0.456507 6.5272 0.456507 6.69051 0.959115L7.76392 4.26273C7.83695 4.4875 8.04642 4.63969 8.28276 4.63969L11.7564 4.63969C12.2849 4.63969 12.5046 5.31594 12.077 5.62657L9.26682 7.66831C9.07561 7.80723 8.99561 8.05347 9.06864 8.27824L10.142 11.5819C10.3054 12.0845 9.7301 12.5024 9.30256 12.1918L6.49233 10.15C6.30113 10.0111 6.04222 10.0111 5.85102 10.15L3.0408 12.1918C2.61325 12.5024 2.038 12.0845 2.2013 11.5819L3.27471 8.27824C3.34775 8.05347 3.26774 7.80723 3.07654 7.66831L0.266313 5.62657C-0.16123 5.31594 0.0584978 4.63969 0.586971 4.63969L4.0606 4.63969C4.29694 4.63969 4.5064 4.4875 4.57943 4.26273L5.65284 0.959114Z" fill="#EFCB0F"/>
</svg>
