<svg width="60" height="60" viewBox="0 0 60 60" fill="none" xmlns="http://www.w3.org/2000/svg">
<mask id="mask0_155_1374" style="mask-type:luminance" maskUnits="userSpaceOnUse" x="0" y="0" width="60" height="60">
<path d="M59 59V1H1V59H59Z" fill="white" stroke="white" stroke-width="2"/>
</mask>
<g mask="url(#mask0_155_1374)">
<path d="M49.193 30.2344H48.2126C47.1592 30.2344 46.2202 30.8224 45.8181 31.796C45.8136 31.8067 45.8092 31.8175 45.8047 31.8281C45.4004 32.8017 45.6082 33.9216 46.3536 34.667L47.0468 35.36C48.5671 36.8804 48.5671 39.3454 47.0468 40.8657L45.6703 42.2421C44.15 43.7623 41.6851 43.7623 40.1648 42.2421L39.4717 41.5489C38.7262 40.8034 37.6064 40.5957 36.6328 41C36.6221 41.0045 36.6115 41.0089 36.6007 41.0133C35.6271 41.4154 35.0391 42.3545 35.0391 43.4078V44.3882C35.0391 46.5383 33.2406 48.2812 31.0904 48.2812H29.1439C26.9939 48.2812 25.1953 46.5383 25.1953 44.3882V43.4078C25.1953 42.3545 24.6074 41.4154 23.6337 41.0133C23.623 41.0089 23.6122 41.0045 23.6016 41C22.628 40.5957 21.5081 40.8034 20.7628 41.5489L20.0695 42.2421C18.5493 43.7623 16.0843 43.7623 14.5641 42.2421L13.1877 40.8657C11.6673 39.3454 11.6673 36.8804 13.1877 35.36L13.8807 34.667C14.6263 33.9216 14.8341 32.8017 14.4296 31.8281C14.4252 31.8175 14.4207 31.8067 14.4164 31.796C14.0143 30.8224 13.0753 30.1172 12.0219 30.1172H11.0414C8.89137 30.1172 7.14844 28.4358 7.14844 26.2857V24.3393C7.14844 22.1892 8.89137 20.3906 11.0414 20.3906H12.0219C13.0753 20.3906 14.0143 19.8026 14.4164 18.8289C14.4207 18.8183 14.4252 18.8075 14.4296 18.7969C14.8339 17.8233 14.6263 16.7034 13.8807 15.958L13.1877 15.2648C11.6673 13.7446 11.6673 11.2797 13.1877 9.75938L14.5641 8.38301C16.0843 6.86262 18.5493 6.86262 20.0695 8.38301L20.7627 9.07606C21.5081 9.8216 22.628 10.0293 23.6016 9.62496C23.6122 9.62051 23.623 9.61606 23.6337 9.61172C24.6074 9.20954 25.1953 8.27063 25.1953 7.21711V6.23672C25.1953 4.08668 26.9939 2.34375 29.1439 2.34375H31.0904C33.2406 2.34375 35.0391 4.08668 35.0391 6.23672V7.21711C35.0391 8.27063 35.6271 9.20954 36.6007 9.61172C36.6115 9.61606 36.6221 9.62051 36.6328 9.62496C37.6064 10.0293 38.7262 9.8216 39.4717 9.07606L40.1648 8.38301C41.6852 6.86262 44.15 6.86262 45.6703 8.38301L47.0468 9.75938C48.5671 11.2797 48.5671 13.7446 47.0468 15.2648L46.3536 15.958C45.6082 16.7034 45.4004 17.8233 45.8047 18.7969C45.8092 18.8075 45.8136 18.8183 45.8181 18.8289C46.2202 19.8026 47.1592 20.5078 48.2126 20.5078H49.193C51.343 20.5078 53.0859 22.1892 53.0859 24.3393V26.2857C53.0859 28.4358 51.343 30.2344 49.193 30.2344Z" stroke="#0B09C3" stroke-width="2" stroke-miterlimit="10" stroke-linecap="round"/>
<path d="M50.625 57.6562C54.5082 57.6562 57.6562 54.5082 57.6562 50.625V46.2891" stroke="#0B09C3" stroke-width="2" stroke-miterlimit="10" stroke-linecap="round" stroke-linejoin="round"/>
<path d="M2.34375 46.2891V50.625C2.34375 54.5082 5.49176 57.6562 9.375 57.6562H38.7891" stroke="#0B09C3" stroke-width="2" stroke-miterlimit="10" stroke-linecap="round" stroke-linejoin="round"/>
<path d="M30.1315 31.3557L30.1172 17.2267" stroke="#0B09C3" stroke-width="2" stroke-miterlimit="10" stroke-linecap="round" stroke-linejoin="round"/>
<path d="M36.9287 26.551L33.3293 30.1505C31.4987 31.9811 28.5307 31.9811 26.7001 30.1505L23.1006 26.551" stroke="#0B09C3" stroke-width="2" stroke-miterlimit="10" stroke-linecap="round" stroke-linejoin="round"/>
</g>
</svg>
